<mxfile host="app.diagrams.net" modified="2020-09-18T18:18:04.201Z" agent="5.0 (Windows NT 10.0; Win64; x64) AppleWebKit/537.36 (KHTML, like Gecko) Chrome/85.0.4183.102 Safari/537.36" etag="6CcUSM59KX1K6hM82rpJ" version="13.7.3" type="github">
  <diagram name="Page-1" id="c4acf3e9-155e-7222-9cf6-157b1a14988f">
    <mxGraphModel dx="1038" dy="548" grid="1" gridSize="10" guides="1" tooltips="1" connect="1" arrows="1" fold="1" page="1" pageScale="1" pageWidth="850" pageHeight="1100" background="#ffffff" math="0" shadow="0">
      <root>
        <mxCell id="0" />
        <mxCell id="1" parent="0" />
        <mxCell id="17acba5748e5396b-1" value="Diagram&lt;br&gt;Komponentow" style="shape=umlFrame;whiteSpace=wrap;html=1;rounded=0;shadow=0;comic=0;labelBackgroundColor=none;strokeWidth=1;fontFamily=Verdana;fontSize=10;align=center;" parent="1" vertex="1">
          <mxGeometry x="20" y="20" width="820" height="710" as="geometry" />
        </mxCell>
        <mxCell id="5d2195bd80daf111-21" style="edgeStyle=orthogonalEdgeStyle;rounded=0;html=1;labelBackgroundColor=none;startFill=0;endArrow=open;endFill=0;endSize=10;fontFamily=Verdana;fontSize=10;dashed=1;exitX=0.5;exitY=1;exitDx=0;exitDy=0;" parent="1" source="OjBzRFMgy4x2ZHEio1Mx-6" target="OjBzRFMgy4x2ZHEio1Mx-8" edge="1">
          <mxGeometry relative="1" as="geometry">
            <mxPoint x="250" y="157" as="sourcePoint" />
            <mxPoint x="360" y="200" as="targetPoint" />
          </mxGeometry>
        </mxCell>
        <mxCell id="OjBzRFMgy4x2ZHEio1Mx-1" value="GUI" style="shape=module;align=left;spacingLeft=20;align=center;verticalAlign=top;" vertex="1" parent="1">
          <mxGeometry x="190" y="350" width="130" height="40" as="geometry" />
        </mxCell>
        <mxCell id="OjBzRFMgy4x2ZHEio1Mx-5" value="DataBaseProvider&#xa;" style="shape=module;align=left;spacingLeft=20;align=center;verticalAlign=top;" vertex="1" parent="1">
          <mxGeometry x="557.5" y="480" width="130" height="40" as="geometry" />
        </mxCell>
        <mxCell id="OjBzRFMgy4x2ZHEio1Mx-6" value="Aplikacja.exe" style="shape=module;align=left;spacingLeft=20;align=center;verticalAlign=top;" vertex="1" parent="1">
          <mxGeometry x="340" y="170" width="130" height="40" as="geometry" />
        </mxCell>
        <mxCell id="OjBzRFMgy4x2ZHEio1Mx-7" style="edgeStyle=orthogonalEdgeStyle;rounded=0;html=1;labelBackgroundColor=none;startFill=0;endArrow=open;endFill=0;endSize=10;fontFamily=Verdana;fontSize=10;dashed=1;entryX=0.5;entryY=0;entryDx=0;entryDy=0;" edge="1" parent="1" source="OjBzRFMgy4x2ZHEio1Mx-6" target="OjBzRFMgy4x2ZHEio1Mx-1">
          <mxGeometry relative="1" as="geometry">
            <mxPoint x="210" y="151.15999999999997" as="sourcePoint" />
            <mxPoint x="370" y="210" as="targetPoint" />
          </mxGeometry>
        </mxCell>
        <mxCell id="OjBzRFMgy4x2ZHEio1Mx-8" value="Admin_account" style="shape=module;align=left;spacingLeft=20;align=center;verticalAlign=top;" vertex="1" parent="1">
          <mxGeometry x="545" y="340" width="155" height="40" as="geometry" />
        </mxCell>
        <mxCell id="OjBzRFMgy4x2ZHEio1Mx-9" style="edgeStyle=orthogonalEdgeStyle;rounded=0;html=1;labelBackgroundColor=none;startFill=0;endArrow=open;endFill=0;endSize=10;fontFamily=Verdana;fontSize=10;dashed=1;entryX=0.5;entryY=0;entryDx=0;entryDy=0;" edge="1" parent="1" source="OjBzRFMgy4x2ZHEio1Mx-8" target="OjBzRFMgy4x2ZHEio1Mx-5">
          <mxGeometry relative="1" as="geometry">
            <mxPoint x="635" y="170" as="sourcePoint" />
            <mxPoint x="635" y="330" as="targetPoint" />
          </mxGeometry>
        </mxCell>
        <mxCell id="OjBzRFMgy4x2ZHEio1Mx-10" value="Klient_account" style="shape=module;align=left;spacingLeft=20;align=center;verticalAlign=top;" vertex="1" parent="1">
          <mxGeometry x="580" y="170" width="140" height="40" as="geometry" />
        </mxCell>
        <mxCell id="OjBzRFMgy4x2ZHEio1Mx-12" style="edgeStyle=orthogonalEdgeStyle;rounded=0;html=1;labelBackgroundColor=none;startFill=0;endArrow=open;endFill=0;endSize=10;fontFamily=Verdana;fontSize=10;dashed=1;entryX=1;entryY=0.5;entryDx=0;entryDy=0;" edge="1" parent="1" source="OjBzRFMgy4x2ZHEio1Mx-10" target="OjBzRFMgy4x2ZHEio1Mx-6">
          <mxGeometry relative="1" as="geometry">
            <mxPoint x="635" y="170" as="sourcePoint" />
            <mxPoint x="635" y="330" as="targetPoint" />
          </mxGeometry>
        </mxCell>
      </root>
    </mxGraphModel>
  </diagram>
</mxfile>
